<svg id="Layer_1" height="512" viewBox="0 0 128 128" width="512" xmlns="http://www.w3.org/2000/svg" data-name="Layer 1"><path d="m46.147 86.132 9.434-11.181h22.362a8.036 8.036 0 0 1 8.036 8.036h5.59l12.814-7.165a15.106 15.106 0 0 1 7.367-1.922h1.7a1.544 1.544 0 0 1 1.078 2.65l-17.153 16.733a23.365 23.365 0 0 1 -13.869 6.507l-37.359 1.715z" fill="#ffd6c9"/><path d="m36.131 82.987h10.016v28.581h-10.016z" fill="#ebebf0"/><path d="m13.001 82.987h23.13v28.581h-23.13z" fill="#537982"/><circle cx="82.317" cy="40.618" fill="#ffd92d" r="24.186"/><g fill="#5a2b41"><path d="m116.5 74.206a3.281 3.281 0 0 0 -3.052-2.054h-1.7a16.89 16.89 0 0 0 -8.221 2.143l-12.415 6.942h-3.541a9.8 9.8 0 0 0 -9.63-8.036h-22.361a1.754 1.754 0 0 0 -1.338.621l-6.775 8.03a1.738 1.738 0 0 0 -1.321-.615h-33.146a1.75 1.75 0 0 0 0 3.5h21.38v14.346a1.75 1.75 0 0 0 3.5 0v-14.346h6.52v25.081h-31.4a1.75 1.75 0 0 0 0 3.5h33.146a1.75 1.75 0 0 0 1.75-1.75v-24.8l8.5-10.071h21.545a6.3 6.3 0 0 1 6.14 4.95l-17.733 4.358a1.75 1.75 0 0 0 .415 3.449 1.728 1.728 0 0 0 .419-.051l19.006-4.666h5.38a1.749 1.749 0 0 0 .854-.222l12.814-7.165a13.37 13.37 0 0 1 6.513-1.7h1.2l-16.8 16.377a21.69 21.69 0 0 1 -12.779 6.015l-29.8 1.368a1.75 1.75 0 0 0 .079 3.5h.081l29.853-1.37c.035 0 .069 0 .1-.008a25.208 25.208 0 0 0 14.907-7l17.157-16.729a3.282 3.282 0 0 0 .753-3.597z"/><path d="m37.88 105.083v-.916a1.75 1.75 0 0 0 -3.5 0v.916a1.75 1.75 0 0 0 3.5 0z"/><path d="m82.316 66.554a25.936 25.936 0 1 0 -15.026-47.078 1.75 1.75 0 1 0 2.03 2.851 22.4 22.4 0 1 1 -7.677 9.558 1.75 1.75 0 0 0 -3.224-1.364 25.95 25.95 0 0 0 23.9 36.033z"/><path d="m62.167 27.125a1.751 1.751 0 0 0 2.457-.306c.134-.173.271-.342.411-.51a1.75 1.75 0 1 0 -2.691-2.239c-.164.2-.324.4-.482.6a1.75 1.75 0 0 0 .305 2.455z"/><path d="m77.72 46.979a1.75 1.75 0 0 0 -3.5 0 8.122 8.122 0 0 0 6.343 7.912v2.942a1.75 1.75 0 1 0 3.5 0v-2.933a8.106 8.106 0 0 0 0-15.841v-9.071a4.614 4.614 0 0 1 2.88 4.268 1.75 1.75 0 0 0 3.5 0 8.122 8.122 0 0 0 -6.38-7.921v-2.935a1.75 1.75 0 0 0 -3.5 0v2.943a8.105 8.105 0 0 0 0 15.823v9.068a4.618 4.618 0 0 1 -2.843-4.255zm9.223 0a4.613 4.613 0 0 1 -2.88 4.268v-8.535a4.612 4.612 0 0 1 2.88 4.267zm-9.223-12.723a4.615 4.615 0 0 1 2.843-4.256v8.513a4.619 4.619 0 0 1 -2.843-4.257z"/></g></svg>